<?xml version="1.0" encoding="UTF-8" standalone="no"?>
<!-- Created with Inkscape (http://www.inkscape.org/) -->

<svg
   width="16"
   height="16"
   viewBox="0 0 16 16"
   version="1.1"
   id="svg1"
   inkscape:version="1.3.2 (091e20e, 2023-11-25, custom)"
   sodipodi:docname="logo.svg"
   xmlns:inkscape="http://www.inkscape.org/namespaces/inkscape"
   xmlns:sodipodi="http://sodipodi.sourceforge.net/DTD/sodipodi-0.dtd"
   xmlns="http://www.w3.org/2000/svg"
   xmlns:svg="http://www.w3.org/2000/svg">
  <sodipodi:namedview
     id="namedview1"
     pagecolor="#505050"
     bordercolor="#ffffff"
     borderopacity="1"
     inkscape:showpageshadow="0"
     inkscape:pageopacity="0"
     inkscape:pagecheckerboard="1"
     inkscape:deskcolor="#505050"
     inkscape:document-units="px"
     inkscape:zoom="25.65625"
     inkscape:cx="8.6528624"
     inkscape:cy="9.8416565"
     inkscape:window-width="1920"
     inkscape:window-height="1017"
     inkscape:window-x="-8"
     inkscape:window-y="-8"
     inkscape:window-maximized="1"
     inkscape:current-layer="layer1" />
  <defs
     id="defs1" />
  <g
     inkscape:label="Warstwa 1"
     inkscape:groupmode="layer"
     id="layer1">
    <path
       id="path1"
       style="display:inline;fill:#5fb067;fill-opacity:1;stroke:none;stroke-width:1;stroke-linecap:round;stroke-linejoin:round;stroke-dasharray:none"
       d="M 9.03125,0.06835937 8.9492188,0.31640625 5.5820312,10.417969 15.683594,7.0507812 15.931641,6.96875 A 8,8 0 0 0 9.03125,0.06835937 Z M 6.9199219,0.078125 A 8,8 0 0 0 0,8 8,8 0 0 0 8,16 8,8 0 0 0 15.921875,9.0800781 L 4.3164062,12.949219 a 1.0001,1.0001 0 0 1 -1.265625,-1.265625 z" />
    <path
       style="color:#000000;display:none;fill:#ffffff;stroke-linecap:square;stroke-linejoin:round;-inkscape-stroke:none"
       d="M 8.3828125,-0.92382813 A 1.0001,1.0001 0 0 0 7.2929687,-0.70703125 L -0.70703125,7.2929687 a 1.0001,1.0001 0 0 0 0,1.4140626 L 7.2929687,16.707031 8,17.414062 8.7070313,16.707031 9.4140625,16 16.707031,8.7070313 17.414062,8 16,6.5859375 15.292969,7.2929687 9,13.585938 V 0 A 1.0001,1.0001 0 0 0 8.3828125,-0.92382813 Z M 7,2.4140625 V 13.585938 L 1.4140625,8 Z"
       id="path2" />
  </g>
</svg>
